<svg xmlns="http://www.w3.org/2000/svg" xmlns:xlink="http://www.w3.org/1999/xlink" width="500" zoomAndPan="magnify" viewBox="0 0 375 374.999991" height="500" preserveAspectRatio="xMidYMid meet" version="1.0"><defs><g/></defs><g fill="#6366f1" fill-opacity="1"><g transform="translate(9.425073, 259.345785)"><g><path d="M 162.75 -40.328125 C 164.332031 -40.328125 165.578125 -39.566406 166.484375 -38.046875 C 167.398438 -36.523438 167.859375 -34.609375 167.859375 -32.296875 C 167.859375 -29.492188 167.429688 -27.300781 166.578125 -25.71875 C 165.722656 -24.144531 164.382812 -22.75 162.5625 -21.53125 C 155.382812 -16.78125 143.953125 -8.992188 128.265625 1.828125 C 123.523438 27.003906 117.382812 46.828125 109.84375 61.296875 C 102.300781 75.773438 92.75 83.015625 81.1875 83.015625 C 74.988281 83.015625 69.941406 81.097656 66.046875 77.265625 C 62.148438 73.429688 60.203125 68.414062 60.203125 62.21875 C 60.203125 56.5 61.476562 50.71875 64.03125 44.875 C 66.59375 39.039062 71.367188 32.289062 78.359375 24.625 C 85.359375 16.96875 95.242188 8.210938 108.015625 -1.640625 L 108.5625 -5.109375 C 98.945312 -1.097656 89.519531 0.90625 80.28125 0.90625 C 66.65625 0.90625 54.671875 -1.738281 44.328125 -7.03125 C 33.992188 -12.320312 25.96875 -19.832031 20.25 -29.5625 C 14.53125 -39.289062 11.671875 -50.601562 11.671875 -63.5 C 11.671875 -81.5 15.078125 -97.398438 21.890625 -111.203125 C 28.703125 -125.003906 38.097656 -135.707031 50.078125 -143.3125 C 62.066406 -150.914062 75.476562 -154.71875 90.3125 -154.71875 C 104.539062 -154.71875 115.210938 -151.398438 122.328125 -144.765625 C 129.453125 -138.140625 133.015625 -129.351562 133.015625 -118.40625 C 133.015625 -111.226562 131.703125 -105.476562 129.078125 -101.15625 C 126.460938 -96.84375 122.722656 -94.6875 117.859375 -94.6875 C 114.578125 -94.6875 111.929688 -95.476562 109.921875 -97.0625 C 107.921875 -98.644531 106.921875 -100.835938 106.921875 -103.640625 C 106.921875 -104.847656 107.160156 -106.914062 107.640625 -109.84375 C 108.367188 -113.25 108.734375 -115.921875 108.734375 -117.859375 C 108.734375 -122.972656 107.179688 -126.925781 104.078125 -129.71875 C 100.984375 -132.519531 95.785156 -133.921875 88.484375 -133.921875 C 79.609375 -133.921875 71.367188 -131.363281 63.765625 -126.25 C 56.160156 -121.144531 50.046875 -113.515625 45.421875 -103.359375 C 40.804688 -93.203125 38.5 -81.007812 38.5 -66.78125 C 38.5 -52.1875 42.484375 -40.90625 50.453125 -32.9375 C 58.421875 -24.96875 69.941406 -20.984375 85.015625 -20.984375 C 93.410156 -20.984375 102.171875 -22.867188 111.296875 -26.640625 L 113.84375 -48.890625 L 95.234375 -48.890625 C 91.828125 -48.890625 89.210938 -49.710938 87.390625 -51.359375 C 85.566406 -53.003906 84.65625 -55.710938 84.65625 -59.484375 C 84.65625 -62.890625 85.566406 -65.5625 87.390625 -67.5 C 89.210938 -69.445312 91.644531 -70.421875 94.6875 -70.421875 L 128.8125 -70.421875 C 131.488281 -70.421875 133.707031 -69.539062 135.46875 -67.78125 C 137.226562 -66.019531 137.925781 -63.492188 137.5625 -60.203125 C 137.195312 -56.316406 135.984375 -47.5 133.921875 -33.75 L 131.90625 -19.890625 C 141.644531 -27.179688 150.523438 -33.503906 158.546875 -38.859375 C 160.128906 -39.835938 161.53125 -40.328125 162.75 -40.328125 Z M 83.203125 65.3125 C 86.359375 65.3125 89.820312 61.722656 93.59375 54.546875 C 97.363281 47.367188 100.894531 35.816406 104.1875 19.890625 C 94.9375 27.796875 88.273438 34.941406 84.203125 41.328125 C 80.128906 47.710938 78.09375 53.335938 78.09375 58.203125 C 78.09375 62.941406 79.796875 65.3125 83.203125 65.3125 Z M 83.203125 65.3125 "/></g></g></g><g fill="#6366f1" fill-opacity="1"><g transform="translate(157.389905, 259.345785)"><g><path d="M 42.328125 0.90625 C 37.828125 0.90625 34.601562 -0.09375 32.65625 -2.09375 C 30.707031 -4.101562 29.734375 -7.90625 29.734375 -13.5 C 29.734375 -17.269531 30.097656 -21.832031 30.828125 -27.1875 C 31.554688 -32.539062 32.835938 -40.628906 34.671875 -51.453125 C 34.910156 -52.910156 35.878906 -58.835938 37.578125 -69.234375 C 39.285156 -79.640625 40.804688 -90.554688 42.140625 -101.984375 C 43.359375 -111.722656 43.96875 -119.023438 43.96875 -123.890625 C 43.96875 -129.359375 41.960938 -132.09375 37.953125 -132.09375 C 34.910156 -132.09375 31.109375 -130.476562 26.546875 -127.25 C 21.984375 -124.03125 17.085938 -118.894531 11.859375 -111.84375 C 10.160156 -109.53125 8.273438 -108.375 6.203125 -108.375 C 4.503906 -108.375 3.015625 -109.191406 1.734375 -110.828125 C 0.453125 -112.472656 -0.1875 -114.332031 -0.1875 -116.40625 C -0.1875 -118.46875 0.175781 -120.441406 0.90625 -122.328125 C 1.632812 -124.210938 2.972656 -126.492188 4.921875 -129.171875 C 10.878906 -137.328125 17.507812 -143.625 24.8125 -148.0625 C 32.113281 -152.5 39.773438 -154.71875 47.796875 -154.71875 C 54.492188 -154.71875 59.515625 -152.648438 62.859375 -148.515625 C 66.203125 -144.378906 67.875 -138.359375 67.875 -130.453125 C 67.875 -123.398438 66.898438 -113.179688 64.953125 -99.796875 C 71.035156 -117.804688 78.757812 -131.460938 88.125 -140.765625 C 97.488281 -150.066406 108.5 -154.71875 121.15625 -154.71875 C 131.125 -154.71875 138.628906 -151.890625 143.671875 -146.234375 C 148.722656 -140.578125 151.25 -133.003906 151.25 -123.515625 C 151.25 -118.171875 150.457031 -111.664062 148.875 -104 L 137.75 -51.8125 C 136.53125 -45.726562 135.921875 -40.5 135.921875 -36.125 C 135.921875 -31.019531 137.109375 -27.1875 139.484375 -24.625 C 141.859375 -22.070312 145.171875 -20.796875 149.421875 -20.796875 C 153.441406 -20.796875 157.363281 -22.132812 161.1875 -24.8125 C 165.019531 -27.488281 169.554688 -31.925781 174.796875 -38.125 C 176.253906 -39.832031 177.894531 -40.6875 179.71875 -40.6875 C 181.300781 -40.6875 182.546875 -39.957031 183.453125 -38.5 C 184.367188 -37.039062 184.828125 -35.035156 184.828125 -32.484375 C 184.828125 -27.734375 183.671875 -23.960938 181.359375 -21.171875 C 175.035156 -13.503906 168.769531 -7.90625 162.5625 -4.375 C 156.363281 -0.851562 149.859375 0.90625 143.046875 0.90625 C 132.703125 0.90625 124.609375 -2.160156 118.765625 -8.296875 C 112.929688 -14.441406 110.015625 -22.6875 110.015625 -33.03125 C 110.015625 -37.039062 110.347656 -41.414062 111.015625 -46.15625 C 111.691406 -50.90625 112.816406 -56.925781 114.390625 -64.21875 L 121.703125 -97.609375 C 121.941406 -98.703125 122.363281 -100.644531 122.96875 -103.4375 C 123.582031 -106.238281 124.070312 -108.882812 124.4375 -111.375 C 124.800781 -113.875 124.984375 -116.34375 124.984375 -118.78125 C 124.984375 -122.664062 123.882812 -125.765625 121.6875 -128.078125 C 119.5 -130.390625 116.398438 -131.546875 112.390625 -131.546875 C 105.085938 -131.546875 97.785156 -127.648438 90.484375 -119.859375 C 83.191406 -112.078125 76.441406 -99.519531 70.234375 -82.1875 C 64.035156 -64.863281 59.171875 -42.695312 55.640625 -15.6875 C 54.796875 -9.488281 53.550781 -5.171875 51.90625 -2.734375 C 50.257812 -0.304688 47.066406 0.90625 42.328125 0.90625 Z M 42.328125 0.90625 "/></g></g></g><g fill="#6366f1" fill-opacity="1"><g transform="translate(318.673386, 259.345785)"><g><path d="M 21.34375 0.90625 C 15.988281 0.90625 11.941406 -0.550781 9.203125 -3.46875 C 6.472656 -6.382812 5.109375 -10.21875 5.109375 -14.96875 C 5.109375 -20.4375 6.65625 -24.8125 9.75 -28.09375 C 12.851562 -31.382812 17.207031 -33.03125 22.8125 -33.03125 C 28.15625 -33.03125 32.195312 -31.71875 34.9375 -29.09375 C 37.675781 -26.476562 39.046875 -22.617188 39.046875 -17.515625 C 39.046875 -11.921875 37.460938 -7.453125 34.296875 -4.109375 C 31.140625 -0.765625 26.820312 0.90625 21.34375 0.90625 Z M 27.734375 -51.09375 C 22.378906 -51.09375 18.332031 -52.550781 15.59375 -55.46875 C 12.863281 -58.382812 11.5 -62.21875 11.5 -66.96875 C 11.5 -72.4375 13.046875 -76.8125 16.140625 -80.09375 C 19.242188 -83.382812 23.597656 -85.03125 29.203125 -85.03125 C 34.546875 -85.03125 38.585938 -83.71875 41.328125 -81.09375 C 44.066406 -78.476562 45.4375 -74.617188 45.4375 -69.515625 C 45.4375 -63.921875 43.851562 -59.453125 40.6875 -56.109375 C 37.53125 -52.765625 33.210938 -51.09375 27.734375 -51.09375 Z M 27.734375 -51.09375 "/></g></g></g></svg>