<svg xmlns="http://www.w3.org/2000/svg" xmlns:xlink="http://www.w3.org/1999/xlink" width="500" zoomAndPan="magnify" viewBox="0 0 375 374.999991" height="500" preserveAspectRatio="xMidYMid meet" version="1.0"><defs><g/></defs><rect x="-37.5" width="450" fill="#ffffff" y="-37.499999" height="449.999989" fill-opacity="1"/><rect x="-37.5" width="450" fill="#ffffff" y="-37.499999" height="449.999989" fill-opacity="1"/><rect x="-37.5" width="450" fill="#18181b" y="-37.499999" height="449.999989" fill-opacity="1"/><g fill="#6366f1" fill-opacity="1"><g transform="translate(64.369109, 237.178147)"><g><path d="M 112.53125 -27.875 C 113.625 -27.875 114.484375 -27.347656 115.109375 -26.296875 C 115.742188 -25.253906 116.0625 -23.929688 116.0625 -22.328125 C 116.0625 -20.390625 115.765625 -18.875 115.171875 -17.78125 C 114.585938 -16.6875 113.664062 -15.722656 112.40625 -14.890625 C 107.445312 -11.609375 99.539062 -6.222656 88.6875 1.265625 C 85.40625 18.671875 81.15625 32.378906 75.9375 42.390625 C 70.726562 52.398438 64.128906 57.40625 56.140625 57.40625 C 51.847656 57.40625 48.351562 56.078125 45.65625 53.421875 C 42.96875 50.773438 41.625 47.304688 41.625 43.015625 C 41.625 39.066406 42.507812 35.070312 44.28125 31.03125 C 46.050781 27 49.351562 22.332031 54.1875 17.03125 C 59.019531 11.726562 65.851562 5.671875 74.6875 -1.140625 L 75.0625 -3.53125 C 68.414062 -0.757812 61.898438 0.625 55.515625 0.625 C 46.085938 0.625 37.800781 -1.203125 30.65625 -4.859375 C 23.507812 -8.515625 17.957031 -13.707031 14 -20.4375 C 10.050781 -27.164062 8.078125 -34.988281 8.078125 -43.90625 C 8.078125 -56.351562 10.429688 -67.347656 15.140625 -76.890625 C 19.847656 -86.441406 26.34375 -93.84375 34.625 -99.09375 C 42.914062 -104.351562 52.191406 -106.984375 62.453125 -106.984375 C 72.285156 -106.984375 79.660156 -104.691406 84.578125 -100.109375 C 89.503906 -95.523438 91.96875 -89.445312 91.96875 -81.875 C 91.96875 -76.914062 91.0625 -72.941406 89.25 -69.953125 C 87.445312 -66.960938 84.863281 -65.46875 81.5 -65.46875 C 79.226562 -65.46875 77.394531 -66.015625 76 -67.109375 C 74.613281 -68.203125 73.921875 -69.71875 73.921875 -71.65625 C 73.921875 -72.5 74.09375 -73.929688 74.4375 -75.953125 C 74.9375 -78.304688 75.1875 -80.15625 75.1875 -81.5 C 75.1875 -85.03125 74.113281 -87.757812 71.96875 -89.6875 C 69.820312 -91.625 66.226562 -92.59375 61.1875 -92.59375 C 55.039062 -92.59375 49.335938 -90.828125 44.078125 -87.296875 C 38.828125 -83.765625 34.601562 -78.488281 31.40625 -71.46875 C 28.21875 -64.445312 26.625 -56.015625 26.625 -46.171875 C 26.625 -36.078125 29.375 -28.273438 34.875 -22.765625 C 40.382812 -17.265625 48.351562 -14.515625 58.78125 -14.515625 C 64.59375 -14.515625 70.648438 -15.816406 76.953125 -18.421875 L 78.71875 -33.8125 L 65.859375 -33.8125 C 63.503906 -33.8125 61.691406 -34.378906 60.421875 -35.515625 C 59.160156 -36.648438 58.53125 -38.519531 58.53125 -41.125 C 58.53125 -43.476562 59.160156 -45.328125 60.421875 -46.671875 C 61.691406 -48.023438 63.375 -48.703125 65.46875 -48.703125 L 89.0625 -48.703125 C 90.914062 -48.703125 92.453125 -48.085938 93.671875 -46.859375 C 94.890625 -45.640625 95.375 -43.894531 95.125 -41.625 C 94.875 -38.9375 94.03125 -32.84375 92.59375 -23.34375 L 91.21875 -13.75 C 97.9375 -18.800781 104.070312 -23.175781 109.625 -26.875 C 110.71875 -27.539062 111.6875 -27.875 112.53125 -27.875 Z M 57.53125 45.15625 C 59.71875 45.15625 62.113281 42.675781 64.71875 37.71875 C 67.320312 32.757812 69.757812 24.769531 72.03125 13.75 C 65.644531 19.21875 61.039062 24.160156 58.21875 28.578125 C 55.40625 32.992188 54 36.882812 54 40.25 C 54 43.519531 55.175781 45.15625 57.53125 45.15625 Z M 57.53125 45.15625 "/></g></g></g><g fill="#6366f1" fill-opacity="1"><g transform="translate(166.680206, 237.178147)"><g><path d="M 29.265625 0.625 C 26.148438 0.625 23.921875 -0.0664062 22.578125 -1.453125 C 21.234375 -2.835938 20.5625 -5.460938 20.5625 -9.328125 C 20.5625 -11.941406 20.8125 -15.097656 21.3125 -18.796875 C 21.820312 -22.492188 22.707031 -28.085938 23.96875 -35.578125 C 24.132812 -36.585938 24.804688 -40.6875 25.984375 -47.875 C 27.160156 -55.0625 28.210938 -62.609375 29.140625 -70.515625 C 29.984375 -77.242188 30.40625 -82.289062 30.40625 -85.65625 C 30.40625 -89.445312 29.015625 -91.34375 26.234375 -91.34375 C 24.140625 -91.34375 21.515625 -90.226562 18.359375 -88 C 15.203125 -85.769531 11.816406 -82.210938 8.203125 -77.328125 C 7.023438 -75.734375 5.722656 -74.9375 4.296875 -74.9375 C 3.109375 -74.9375 2.070312 -75.503906 1.1875 -76.640625 C 0.3125 -77.773438 -0.125 -79.054688 -0.125 -80.484375 C -0.125 -81.910156 0.125 -83.273438 0.625 -84.578125 C 1.132812 -85.890625 2.0625 -87.46875 3.40625 -89.3125 C 7.53125 -94.945312 12.113281 -99.300781 17.15625 -102.375 C 22.207031 -105.445312 27.503906 -106.984375 33.046875 -106.984375 C 37.671875 -106.984375 41.140625 -105.550781 43.453125 -102.6875 C 45.773438 -99.832031 46.9375 -95.671875 46.9375 -90.203125 C 46.9375 -85.328125 46.257812 -78.257812 44.90625 -69 C 49.113281 -81.445312 54.453125 -90.890625 60.921875 -97.328125 C 67.398438 -103.765625 75.015625 -106.984375 83.765625 -106.984375 C 90.660156 -106.984375 95.851562 -105.023438 99.34375 -101.109375 C 102.832031 -97.203125 104.578125 -91.96875 104.578125 -85.40625 C 104.578125 -81.707031 104.03125 -77.207031 102.9375 -71.90625 L 95.25 -35.828125 C 94.40625 -31.617188 93.984375 -28.003906 93.984375 -24.984375 C 93.984375 -21.453125 94.800781 -18.800781 96.4375 -17.03125 C 98.082031 -15.257812 100.378906 -14.375 103.328125 -14.375 C 106.097656 -14.375 108.804688 -15.300781 111.453125 -17.15625 C 114.109375 -19.007812 117.242188 -22.078125 120.859375 -26.359375 C 121.867188 -27.546875 123.003906 -28.140625 124.265625 -28.140625 C 125.359375 -28.140625 126.21875 -27.632812 126.84375 -26.625 C 127.476562 -25.613281 127.796875 -24.222656 127.796875 -22.453125 C 127.796875 -19.171875 127 -16.566406 125.40625 -14.640625 C 121.03125 -9.335938 116.695312 -5.46875 112.40625 -3.03125 C 108.113281 -0.59375 103.613281 0.625 98.90625 0.625 C 91.757812 0.625 86.164062 -1.492188 82.125 -5.734375 C 78.09375 -9.984375 76.078125 -15.679688 76.078125 -22.828125 C 76.078125 -25.609375 76.304688 -28.640625 76.765625 -31.921875 C 77.222656 -35.203125 78 -39.363281 79.09375 -44.40625 L 84.140625 -67.5 C 84.316406 -68.25 84.613281 -69.59375 85.03125 -71.53125 C 85.445312 -73.46875 85.78125 -75.296875 86.03125 -77.015625 C 86.289062 -78.742188 86.421875 -80.445312 86.421875 -82.125 C 86.421875 -84.820312 85.660156 -86.96875 84.140625 -88.5625 C 82.628906 -90.15625 80.488281 -90.953125 77.71875 -90.953125 C 72.664062 -90.953125 67.613281 -88.257812 62.5625 -82.875 C 57.519531 -77.5 52.851562 -68.816406 48.5625 -56.828125 C 44.28125 -44.847656 40.921875 -29.519531 38.484375 -10.84375 C 37.890625 -6.5625 37.023438 -3.578125 35.890625 -1.890625 C 34.753906 -0.210938 32.546875 0.625 29.265625 0.625 Z M 29.265625 0.625 "/></g></g></g><g fill="#6366f1" fill-opacity="1"><g transform="translate(278.200557, 237.178147)"><g><path d="M 14.765625 0.625 C 11.054688 0.625 8.253906 -0.378906 6.359375 -2.390625 C 4.472656 -4.410156 3.53125 -7.0625 3.53125 -10.34375 C 3.53125 -14.125 4.601562 -17.148438 6.75 -19.421875 C 8.894531 -21.691406 11.898438 -22.828125 15.765625 -22.828125 C 19.472656 -22.828125 22.269531 -21.921875 24.15625 -20.109375 C 26.050781 -18.304688 27 -15.640625 27 -12.109375 C 27 -8.242188 25.90625 -5.15625 23.71875 -2.84375 C 21.53125 -0.53125 18.546875 0.625 14.765625 0.625 Z M 19.1875 -35.328125 C 15.476562 -35.328125 12.675781 -36.332031 10.78125 -38.34375 C 8.894531 -40.363281 7.953125 -43.015625 7.953125 -46.296875 C 7.953125 -50.078125 9.023438 -53.101562 11.171875 -55.375 C 13.316406 -57.644531 16.320312 -58.78125 20.1875 -58.78125 C 23.894531 -58.78125 26.691406 -57.875 28.578125 -56.0625 C 30.472656 -54.257812 31.421875 -51.59375 31.421875 -48.0625 C 31.421875 -44.195312 30.328125 -41.109375 28.140625 -38.796875 C 25.953125 -36.484375 22.96875 -35.328125 19.1875 -35.328125 Z M 19.1875 -35.328125 "/></g></g></g></svg>