<svg xmlns="http://www.w3.org/2000/svg" version="1.1" xmlns:xlink="http://www.w3.org/1999/xlink" xmlns:svgjs="http://svgjs.com/svgjs" width="1440" height="560" preserveAspectRatio="none" viewBox="0 0 1440 560">
    <g mask="url(&quot;#SvgjsMask1007&quot;)" fill="none">
        <rect width="1440" height="560" x="0" y="0" fill="rgba(24, 24, 27, 1)"></rect>
        <path d="M 0,126 C 57.6,139.4 172.8,196.8 288,193 C 403.2,189.2 460.8,102.4 576,107 C 691.2,111.6 748.8,212.4 864,216 C 979.2,219.6 1036.8,132.6 1152,125 C 1267.2,117.4 1382.4,167.4 1440,178L1440 560L0 560z" fill="rgba(50, 53, 169, 1)"></path>
        <path d="M 0,455 C 96,425.2 288,308.8 480,306 C 672,303.2 768,421.6 960,441 C 1152,460.4 1344,410.6 1440,403L1440 560L0 560z" fill="rgba(99, 102, 241, 1)"></path>
    </g>
    <defs>
        <mask id="SvgjsMask1007">
            <rect width="1440" height="560" fill="#ffffff"></rect>
        </mask>
    </defs>
</svg>